<svg xmlns="http://www.w3.org/2000/svg" viewBox="0 0 800 280" fill="none">
  <defs>
    <linearGradient id="bg" x1="0" y1="0" x2="800" y2="280" gradientUnits="userSpaceOnUse">
      <stop offset="0%" stop-color="#0f0f0f"/>
      <stop offset="100%" stop-color="#1a1a2e"/>
    </linearGradient>
    <linearGradient id="accent" x1="0" y1="0" x2="200" y2="0" gradientUnits="userSpaceOnUse">
      <stop offset="0%" stop-color="#f97316"/>
      <stop offset="100%" stop-color="#fb923c"/>
    </linearGradient>
  </defs>
  <rect width="800" height="280" rx="16" fill="url(#bg)"/>

  <!-- Icon -->
  <g transform="translate(40, 32)">
    <rect width="52" height="52" rx="12" fill="#f97316" opacity="0.15"/>
    <text x="10" y="38" font-family="ui-monospace, 'SF Mono', monospace" font-size="30" font-weight="900" fill="#f97316">/f</text>
  </g>

  <!-- Title -->
  <text x="108" y="64" font-family="ui-monospace, 'Cascadia Code', 'Fira Code', monospace" font-size="28" font-weight="bold" fill="#f5f5f5">Founder Skills</text>
  <text x="108" y="82" font-family="ui-monospace, monospace" font-size="13" fill="#71717a">open standard · works everywhere</text>

  <!-- Platform pills -->
  <g transform="translate(530, 32)">
    <rect width="100" height="26" rx="13" fill="#8b5cf6" opacity="0.15"/>
    <text x="14" y="17" font-family="ui-monospace, monospace" font-size="11" fill="#a78bfa">Claude Code</text>
  </g>
  <g transform="translate(640, 32)">
    <rect width="68" height="26" rx="13" fill="#22c55e" opacity="0.15"/>
    <text x="14" y="17" font-family="ui-monospace, monospace" font-size="11" fill="#4ade80">Codex</text>
  </g>
  <g transform="translate(718, 32)">
    <rect width="64" height="26" rx="13" fill="#3b82f6" opacity="0.15"/>
    <text x="10" y="17" font-family="ui-monospace, monospace" font-size="11" fill="#60a5fa">Gemini</text>
  </g>

  <!-- Category grid -->
  <g transform="translate(40, 108)">
    <!-- Row 1 -->
    <rect x="0" y="0" width="145" height="36" rx="8" fill="#1e1e2e"/>
    <text x="12" y="13" font-family="system-ui, sans-serif" font-size="14">🎯</text>
    <text x="32" y="24" font-family="ui-monospace, monospace" font-size="12" fill="#f5f5f5">strategy</text>
    <text x="110" y="24" font-family="ui-monospace, monospace" font-size="10" fill="#71717a">48</text>

    <rect x="155" y="0" width="145" height="36" rx="8" fill="#1e1e2e"/>
    <text x="167" y="13" font-family="system-ui, sans-serif" font-size="14">📈</text>
    <text x="187" y="24" font-family="ui-monospace, monospace" font-size="12" fill="#f5f5f5">marketing</text>
    <text x="268" y="24" font-family="ui-monospace, monospace" font-size="10" fill="#71717a">44</text>

    <rect x="310" y="0" width="145" height="36" rx="8" fill="#1e1e2e"/>
    <text x="322" y="13" font-family="system-ui, sans-serif" font-size="14">💡</text>
    <text x="342" y="24" font-family="ui-monospace, monospace" font-size="12" fill="#f5f5f5">innovation</text>
    <text x="426" y="24" font-family="ui-monospace, monospace" font-size="10" fill="#71717a">43</text>

    <rect x="465" y="0" width="145" height="36" rx="8" fill="#1e1e2e"/>
    <text x="477" y="13" font-family="system-ui, sans-serif" font-size="14">💰</text>
    <text x="497" y="24" font-family="ui-monospace, monospace" font-size="12" fill="#f5f5f5">finance</text>
    <text x="574" y="24" font-family="ui-monospace, monospace" font-size="10" fill="#71717a">38</text>

    <rect x="620" y="0" width="140" height="36" rx="8" fill="#1e1e2e"/>
    <text x="632" y="13" font-family="system-ui, sans-serif" font-size="14">🗣️</text>
    <text x="652" y="24" font-family="ui-monospace, monospace" font-size="12" fill="#f5f5f5">comms</text>
    <text x="718" y="24" font-family="ui-monospace, monospace" font-size="10" fill="#71717a">37</text>

    <!-- Row 2 -->
    <rect x="0" y="44" width="145" height="36" rx="8" fill="#1e1e2e"/>
    <text x="12" y="57" font-family="system-ui, sans-serif" font-size="14">🏢</text>
    <text x="32" y="68" font-family="ui-monospace, monospace" font-size="12" fill="#f5f5f5">org</text>
    <text x="110" y="68" font-family="ui-monospace, monospace" font-size="10" fill="#71717a">37</text>

    <rect x="155" y="44" width="145" height="36" rx="8" fill="#1e1e2e"/>
    <text x="167" y="57" font-family="system-ui, sans-serif" font-size="14">🧠</text>
    <text x="187" y="68" font-family="ui-monospace, monospace" font-size="12" fill="#f5f5f5">decisions</text>
    <text x="268" y="68" font-family="ui-monospace, monospace" font-size="10" fill="#71717a">36</text>

    <rect x="310" y="44" width="145" height="36" rx="8" fill="#1e1e2e"/>
    <text x="322" y="57" font-family="system-ui, sans-serif" font-size="14">⚡</text>
    <text x="342" y="68" font-family="ui-monospace, monospace" font-size="12" fill="#f5f5f5">productivity</text>
    <text x="442" y="68" font-family="ui-monospace, monospace" font-size="10" fill="#71717a">33</text>

    <rect x="465" y="44" width="145" height="36" rx="8" fill="#1e1e2e"/>
    <text x="477" y="57" font-family="system-ui, sans-serif" font-size="14">👥</text>
    <text x="497" y="68" font-family="ui-monospace, monospace" font-size="12" fill="#f5f5f5">leadership</text>
    <text x="582" y="68" font-family="ui-monospace, monospace" font-size="10" fill="#71717a">31</text>

    <rect x="620" y="44" width="140" height="36" rx="8" fill="#1e1e2e"/>
    <text x="632" y="57" font-family="system-ui, sans-serif" font-size="14">⚙️</text>
    <text x="652" y="68" font-family="ui-monospace, monospace" font-size="12" fill="#f5f5f5">ops</text>
    <text x="718" y="68" font-family="ui-monospace, monospace" font-size="10" fill="#71717a">28</text>

    <!-- Row 3 -->
    <rect x="0" y="88" width="145" height="36" rx="8" fill="#1e1e2e"/>
    <text x="12" y="101" font-family="system-ui, sans-serif" font-size="14">🤝</text>
    <text x="32" y="112" font-family="ui-monospace, monospace" font-size="12" fill="#f5f5f5">sales</text>
    <text x="110" y="112" font-family="ui-monospace, monospace" font-size="10" fill="#71717a">27</text>

    <rect x="155" y="88" width="145" height="36" rx="8" fill="#1e1e2e"/>
    <text x="167" y="101" font-family="system-ui, sans-serif" font-size="14">🎨</text>
    <text x="187" y="112" font-family="ui-monospace, monospace" font-size="12" fill="#f5f5f5">design</text>
    <text x="268" y="112" font-family="ui-monospace, monospace" font-size="10" fill="#71717a">27</text>

    <rect x="310" y="88" width="145" height="36" rx="8" fill="#1e1e2e"/>
    <text x="322" y="101" font-family="system-ui, sans-serif" font-size="14">🤝</text>
    <text x="342" y="112" font-family="ui-monospace, monospace" font-size="12" fill="#f5f5f5">negotiation</text>
    <text x="442" y="112" font-family="ui-monospace, monospace" font-size="10" fill="#71717a">21</text>

    <rect x="465" y="88" width="145" height="36" rx="8" fill="#1e1e2e"/>
    <text x="477" y="101" font-family="system-ui, sans-serif" font-size="14">🔮</text>
    <text x="497" y="112" font-family="ui-monospace, monospace" font-size="12" fill="#f5f5f5">mental</text>
    <text x="574" y="112" font-family="ui-monospace, monospace" font-size="10" fill="#71717a">21</text>

    <rect x="620" y="88" width="140" height="36" rx="8" fill="#1e1e2e"/>
    <text x="632" y="101" font-family="system-ui, sans-serif" font-size="14">🧪</text>
    <text x="652" y="112" font-family="ui-monospace, monospace" font-size="12" fill="#f5f5f5">psych</text>
    <text x="718" y="112" font-family="ui-monospace, monospace" font-size="10" fill="#71717a">13</text>
  </g>

  <!-- Bottom stat bar -->
  <rect x="40" y="248" width="720" height="1" fill="#27272a"/>
  <text x="40" y="268" font-family="ui-monospace, monospace" font-size="12" fill="#f97316">530</text>
  <text x="72" y="268" font-family="ui-monospace, monospace" font-size="12" fill="#71717a">frameworks</text>
  <text x="190" y="268" font-family="ui-monospace, monospace" font-size="12" fill="#22c55e">15</text>
  <text x="210" y="268" font-family="ui-monospace, monospace" font-size="12" fill="#71717a">categories</text>
  <text x="340" y="268" font-family="ui-monospace, monospace" font-size="12" fill="#8b5cf6">3</text>
  <text x="354" y="268" font-family="ui-monospace, monospace" font-size="12" fill="#71717a">platforms</text>
  <text x="480" y="268" font-family="ui-monospace, monospace" font-size="12" fill="#3b82f6">1</text>
  <text x="494" y="268" font-family="ui-monospace, monospace" font-size="12" fill="#71717a">open standard</text>
</svg>
